<?xml version="1.0" encoding="UTF-8" standalone="no"?>
<!DOCTYPE svg PUBLIC "-//W3C//DTD SVG 1.1//EN" "http://www.w3.org/Graphics/SVG/1.1/DTD/svg11.dtd">
<svg width="100%" height="100%" viewBox="0 0 517 533" version="1.1" xmlns="http://www.w3.org/2000/svg" xmlns:xlink="http://www.w3.org/1999/xlink" xml:space="preserve" xmlns:serif="http://www.serif.com/" style="fill-rule:evenodd;clip-rule:evenodd;stroke-linejoin:round;stroke-miterlimit:2;">
    <g transform="matrix(1,0,0,1,-209,-273.666)">
        <g transform="matrix(230.076,398.503,398.503,-230.076,338.07,354.874)">
            <g id="Splat">
                <path d="M0.146,0.381C0.182,0.342 0.226,0.309 0.252,0.263C0.267,0.236 0.277,0.192 0.227,0.212C0.182,0.23 0.142,0.25 0.094,0.251C0.059,0.247 0.028,0.225 0.012,0.195C-0.007,0.158 -0.003,0.112 0.023,0.079C0.05,0.044 0.084,0.041 0.127,0.042C0.198,0.043 0.333,0.015 0.271,-0.079C0.256,-0.1 0.237,-0.118 0.214,-0.13C0.189,-0.143 0.161,-0.146 0.137,-0.159C0.104,-0.176 0.089,-0.214 0.091,-0.249C0.093,-0.301 0.142,-0.33 0.192,-0.313C0.232,-0.3 0.251,-0.262 0.273,-0.229C0.295,-0.195 0.326,-0.17 0.367,-0.163C0.389,-0.16 0.413,-0.162 0.429,-0.177C0.447,-0.195 0.449,-0.222 0.448,-0.247C0.445,-0.312 0.428,-0.377 0.403,-0.438C0.392,-0.465 0.379,-0.495 0.386,-0.524C0.393,-0.552 0.421,-0.574 0.45,-0.575C0.479,-0.575 0.507,-0.556 0.518,-0.53C0.525,-0.512 0.525,-0.492 0.524,-0.473C0.521,-0.424 0.514,-0.375 0.506,-0.326C0.499,-0.285 0.501,-0.239 0.546,-0.221C0.565,-0.213 0.587,-0.215 0.608,-0.22C0.687,-0.238 0.735,-0.303 0.75,-0.379C0.755,-0.402 0.764,-0.425 0.787,-0.435C0.804,-0.442 0.823,-0.441 0.841,-0.436C0.862,-0.431 0.882,-0.42 0.897,-0.404C0.912,-0.388 0.921,-0.367 0.921,-0.345C0.92,-0.287 0.865,-0.277 0.827,-0.249C0.808,-0.236 0.792,-0.218 0.779,-0.199C0.753,-0.159 0.75,-0.112 0.796,-0.086C0.82,-0.072 0.852,-0.073 0.877,-0.086C0.895,-0.095 0.911,-0.11 0.931,-0.11C0.95,-0.109 0.965,-0.093 0.974,-0.076C0.984,-0.055 0.987,-0.031 0.979,-0.009C0.964,0.03 0.918,0.048 0.876,0.052C0.842,0.055 0.714,0.043 0.743,0.11C0.759,0.147 0.804,0.176 0.838,0.194C0.886,0.22 0.943,0.241 0.976,0.285C0.997,0.313 1.007,0.35 0.994,0.381C0.98,0.413 0.939,0.435 0.903,0.425C0.879,0.418 0.862,0.398 0.847,0.38C0.812,0.337 0.678,0.162 0.604,0.246C0.586,0.267 0.599,0.305 0.603,0.328C0.609,0.36 0.618,0.392 0.629,0.423C0.636,0.445 0.646,0.468 0.642,0.491C0.638,0.52 0.613,0.544 0.584,0.549C0.488,0.563 0.506,0.451 0.513,0.402C0.524,0.325 0.466,0.257 0.372,0.292C0.343,0.303 0.319,0.321 0.297,0.341C0.25,0.383 0.206,0.446 0.188,0.471C0.173,0.492 0.121,0.545 0.094,0.514C0.093,0.514 0.093,0.513 0.093,0.513C0.092,0.511 0.091,0.51 0.09,0.509C0.069,0.472 0.125,0.404 0.146,0.381Z" style="fill:url(#_Linear1);fill-rule:nonzero;"/>
            </g>
        </g>
        <g id="Wordmark">
        </g>
        <g id="Motto">
        </g>
    </g>
    <defs>
        <linearGradient id="_Linear1" x1="0" y1="0" x2="1" y2="0" gradientUnits="userSpaceOnUse" gradientTransform="matrix(0.810539,0.29991,0.29991,-0.810539,-0.00525533,-0.0878843)"><stop offset="0" style="stop-color:rgb(252,0,255);stop-opacity:1"/><stop offset="1" style="stop-color:rgb(0,219,222);stop-opacity:1"/></linearGradient>
    </defs>
</svg>
