<?xml version="1.0" encoding="UTF-8" standalone="no"?>
<!DOCTYPE svg PUBLIC "-//W3C//DTD SVG 1.1//EN" "http://www.w3.org/Graphics/SVG/1.1/DTD/svg11.dtd">
<svg width="100%" height="100%" viewBox="0 0 1920 1080" version="1.1" xmlns="http://www.w3.org/2000/svg" xmlns:xlink="http://www.w3.org/1999/xlink" xml:space="preserve" xmlns:serif="http://www.serif.com/" style="fill-rule:evenodd;clip-rule:evenodd;stroke-linejoin:round;stroke-miterlimit:2;">
    <g transform="matrix(230.076,398.503,398.503,-230.076,338.07,354.874)">
        <g id="Splat">
            <path d="M0.146,0.381C0.182,0.342 0.226,0.309 0.252,0.263C0.267,0.236 0.277,0.192 0.227,0.212C0.182,0.23 0.142,0.25 0.094,0.251C0.059,0.247 0.028,0.225 0.012,0.195C-0.007,0.158 -0.003,0.112 0.023,0.079C0.05,0.044 0.084,0.041 0.127,0.042C0.198,0.043 0.333,0.015 0.271,-0.079C0.256,-0.1 0.237,-0.118 0.214,-0.13C0.189,-0.143 0.161,-0.146 0.137,-0.159C0.104,-0.176 0.089,-0.214 0.091,-0.249C0.093,-0.301 0.142,-0.33 0.192,-0.313C0.232,-0.3 0.251,-0.262 0.273,-0.229C0.295,-0.195 0.326,-0.17 0.367,-0.163C0.389,-0.16 0.413,-0.162 0.429,-0.177C0.447,-0.195 0.449,-0.222 0.448,-0.247C0.445,-0.312 0.428,-0.377 0.403,-0.438C0.392,-0.465 0.379,-0.495 0.386,-0.524C0.393,-0.552 0.421,-0.574 0.45,-0.575C0.479,-0.575 0.507,-0.556 0.518,-0.53C0.525,-0.512 0.525,-0.492 0.524,-0.473C0.521,-0.424 0.514,-0.375 0.506,-0.326C0.499,-0.285 0.501,-0.239 0.546,-0.221C0.565,-0.213 0.587,-0.215 0.608,-0.22C0.687,-0.238 0.735,-0.303 0.75,-0.379C0.755,-0.402 0.764,-0.425 0.787,-0.435C0.804,-0.442 0.823,-0.441 0.841,-0.436C0.862,-0.431 0.882,-0.42 0.897,-0.404C0.912,-0.388 0.921,-0.367 0.921,-0.345C0.92,-0.287 0.865,-0.277 0.827,-0.249C0.808,-0.236 0.792,-0.218 0.779,-0.199C0.753,-0.159 0.75,-0.112 0.796,-0.086C0.82,-0.072 0.852,-0.073 0.877,-0.086C0.895,-0.095 0.911,-0.11 0.931,-0.11C0.95,-0.109 0.965,-0.093 0.974,-0.076C0.984,-0.055 0.987,-0.031 0.979,-0.009C0.964,0.03 0.918,0.048 0.876,0.052C0.842,0.055 0.714,0.043 0.743,0.11C0.759,0.147 0.804,0.176 0.838,0.194C0.886,0.22 0.943,0.241 0.976,0.285C0.997,0.313 1.007,0.35 0.994,0.381C0.98,0.413 0.939,0.435 0.903,0.425C0.879,0.418 0.862,0.398 0.847,0.38C0.812,0.337 0.678,0.162 0.604,0.246C0.586,0.267 0.599,0.305 0.603,0.328C0.609,0.36 0.618,0.392 0.629,0.423C0.636,0.445 0.646,0.468 0.642,0.491C0.638,0.52 0.613,0.544 0.584,0.549C0.488,0.563 0.506,0.451 0.513,0.402C0.524,0.325 0.466,0.257 0.372,0.292C0.343,0.303 0.319,0.321 0.297,0.341C0.25,0.383 0.206,0.446 0.188,0.471C0.173,0.492 0.121,0.545 0.094,0.514C0.093,0.514 0.093,0.513 0.093,0.513C0.092,0.511 0.091,0.51 0.09,0.509C0.069,0.472 0.125,0.404 0.146,0.381Z" style="fill:url(#_Linear1);fill-rule:nonzero;"/>
        </g>
    </g>
    <g transform="matrix(1.40338,0,0,1.40338,-343.362,-207.996)">
        <g id="Wordmark">
            <g>
                <g transform="matrix(1,0,0,1,964.948,596.063)">
                    <path d="M0,-145.41L-8.252,-123.554C-22.526,-128.683 -39.029,-132.475 -52.857,-132.475C-72.259,-132.475 -82.295,-124.892 -82.295,-111.957C-82.295,-99.244 -74.712,-92.554 -47.281,-85.417C-8.029,-75.381 7.137,-60.438 7.137,-37.243C7.137,-8.92 -14.72,10.259 -53.526,10.259C-73.821,10.259 -93.669,7.137 -113.742,-0.891L-105.49,-22.525C-88.541,-15.833 -70.252,-12.934 -53.526,-12.934C-33.007,-12.934 -20.742,-22.078 -20.742,-35.237C-20.742,-46.388 -29.216,-53.971 -57.986,-62C-95.231,-71.813 -109.727,-84.525 -109.727,-110.619C-109.727,-138.273 -87.648,-155.669 -53.08,-155.669C-34.345,-155.669 -15.834,-152.101 0,-145.41" style="fill:rgb(102,102,102);fill-rule:nonzero;"/>
                </g>
                <g transform="matrix(1,0,0,1,1083.37,585.135)">
                    <path d="M0,-40.144C0,-66.684 -16.281,-78.95 -35.684,-78.95C-45.274,-78.95 -53.525,-76.72 -60.662,-72.929L-60.662,-7.136C-53.303,-3.122 -44.604,-1.337 -35.238,-1.337C-15.389,-1.337 0,-13.604 0,-40.144M26.316,-40.144C26.316,1.562 -0.446,20.742 -29.216,20.742C-41.036,20.742 -51.965,18.065 -60.439,13.381L-60.439,60.885L-86.087,60.885L-86.087,-98.799L-62.001,-98.799L-62.001,-92.108C-53.525,-97.461 -42.151,-101.029 -29.662,-101.029C-1.339,-101.029 26.316,-81.626 26.316,-40.144" style="fill:rgb(102,102,102);fill-rule:nonzero;"/>
                </g>
                <g transform="matrix(-1,0,0,1,2299.88,-37.745)">
                    <rect x="1137.12" y="476.354" width="25.647" height="165.037" style="fill:rgb(102,102,102);"/>
                </g>
                <g transform="matrix(1,0,0,1,1236.81,503.956)">
                    <path d="M0,82.071C8.921,82.071 19.403,79.842 27.655,75.604L27.655,47.28C20.519,45.942 14.942,45.272 5.13,45.272C-13.158,45.272 -22.525,52.409 -22.525,64.229C-22.525,76.273 -14.496,82.071 0,82.071M57.986,98.352L57.986,99.69L34.792,99.69C33.677,97.46 32.784,95.229 32.115,93C22.079,98.129 7.806,101.921 -4.015,101.921C-31,101.921 -47.058,88.539 -47.058,65.344C-47.058,42.596 -27.209,27.654 3.346,27.654C13.382,27.654 20.741,28.545 27.655,29.66L27.655,26.316C27.655,9.589 17.619,1.337 -0.446,1.337C-11.374,1.337 -23.194,3.121 -35.015,7.135L-41.482,-11.376C-26.316,-16.951 -12.267,-19.85 2.23,-19.85C21.634,-19.85 33.008,-14.944 40.813,-7.361C48.842,0.668 52.41,12.265 52.41,26.316L52.41,63.114C52.41,74.712 53.972,87.647 57.986,98.352" style="fill:rgb(102,102,102);fill-rule:nonzero;"/>
                </g>
                <g transform="matrix(1,0,0,1,1389.13,462.919)">
                    <path d="M0,138.052C-7.583,141.174 -17.842,142.958 -26.54,142.958C-36.799,142.958 -46.166,140.281 -51.965,134.484C-57.986,128.461 -60.662,120.656 -60.662,107.497L-60.662,44.605L-79.619,44.605L-79.619,23.418L-60.662,23.418L-60.662,-4.906L-35.238,-4.906L-35.238,23.418L-5.576,23.418L-5.576,44.605L-35.238,44.605L-35.238,104.152C-35.238,116.196 -29.886,121.548 -19.626,121.548C-14.273,121.548 -8.476,120.433 -3.792,119.095L0,138.052Z" style="fill:rgb(102,102,102);fill-rule:nonzero;"/>
                </g>
                <g transform="matrix(1,0,0,1,1436.41,566.179)">
                    <path d="M0,-44.605L0,37.468L-25.647,37.468L-25.647,-79.842L-1.562,-79.842L-1.562,-65.346C9.367,-72.929 26.316,-80.065 40.813,-82.073L45.273,-59.547C31.446,-57.094 13.604,-51.295 0,-44.605" style="fill:rgb(102,102,102);fill-rule:nonzero;"/>
                </g>
            </g>
        </g>
    </g>
    <g id="Motto">
    </g>
    <defs>
        <linearGradient id="_Linear1" x1="0" y1="0" x2="1" y2="0" gradientUnits="userSpaceOnUse" gradientTransform="matrix(0.810539,0.29991,0.29991,-0.810539,-0.00525533,-0.0878843)"><stop offset="0" style="stop-color:rgb(252,0,255);stop-opacity:1"/><stop offset="1" style="stop-color:rgb(0,219,222);stop-opacity:1"/></linearGradient>
    </defs>
</svg>
